<?xml version="1.0" encoding="UTF-8"?> <svg xmlns="http://www.w3.org/2000/svg" xmlns:xlink="http://www.w3.org/1999/xlink" version="1.1" id="Capa_1" x="0px" y="0px" viewBox="0 0 800 471" style="enable-background:new 0 0 800 471;" xml:space="preserve"> <style type="text/css"> .st0{fill:#C72D27;} .st1{fill:#292889;} .st2{fill:#FFDA00;} .st3{fill:#FFFFFF;} .st4{fill:#B92C32;} </style> <path class="st0" d="M135.05,110.55c-48.56,34.49-77.57,81.03-77.59,132c0.02,50.97,29.03,97.5,77.59,132 c48.49,34.41,116.32,56.08,191.56,56.07c75.23,0.01,143.06-21.66,191.57-56.07c48.55-34.5,77.57-81.03,77.58-132 c-0.01-50.98-29.02-97.51-77.58-132c-48.5-34.4-116.33-56.09-191.57-56.07h-0.11C251.33,54.48,183.53,76.18,135.05,110.55"></path> <path class="st1" d="M101.75,85.52c-46.4,32.72-74.12,76.83-74.14,125.17c0.02,48.32,27.74,92.45,74.14,125.15 c46.35,32.61,111.16,53.19,183.04,53.15c71.9,0.04,136.73-20.55,183.05-53.15c46.4-32.7,74.12-76.83,74.14-125.15 c-0.02-48.34-27.74-92.45-74.14-125.17C421.52,52.91,356.7,32.35,284.8,32.37h-0.08C212.86,32.37,148.07,52.93,101.75,85.52"></path> <path class="st2" d="M580.89,228.38c0,98.18-119.84,177.85-267.11,177.85c-147.26,0-267.1-79.67-267.1-177.85 c0-98.19,119.83-177.87,267.1-177.87C461.05,50.5,580.89,130.19,580.89,228.38"></path> <path class="st3" d="M603.38,347.6c-5.58,0.23-37.03,2.44-37.36,7.54c-0.33,5.08,2.96,7.64,3.96,8.62v48.66c0,0,1.99,5.43,3.53,6.38 c1.07,0.64,2.15,1.26,3.65,1.92c2.05,0.93,27.81,2.8,27.81,2.8l18.51-1.44l12.4-5.37l4.3-3.04v-50.34l4.07-8.25l-5.6-2.1 L603.38,347.6z"></path> <path class="st3" d="M450.84,73.7c0,0,18.99-8.86,20.68-10.19c1.69-1.33,1.86-2.25,2.63-2.96c0.97-0.89,16.48-3.99,17.58-3.5 c1.1,0.51,3.51-2.1,3.46-3.16c-0.06-1.05-0.17-7.39-0.17-7.39L505.1,32.5l9.47-3.54l21.64-0.33l5.1,7.01l7.59,14.84l15.7,14.98 l18.19,18.89c0,0,17.38,13.74,18.7,14.86c1.32,1.1,9.64,4.33,11.98,5.88c2.33,1.54,5.67,6.54,8.37,10.52 c2.7,3.99,19.9,22.28,19.9,22.28l6.64,0.52l4.31,6.58l16.17,7.14c0,0,1.58,1.77,4.09,3.92c1.46,1.23,13.48,1.17,7.93-3.55 c-5.55-4.72-11.99-12.32-11.99-12.32l-0.14-4.42l3.81-3.47c0,0-3.37-4.02-2.61-5.11c1.1-1.6,0.44-5.29,0.8-5.71 c0.04-0.03,0.63-0.11,0.63-0.11l0.16-1.1c0,0,1.35-1.51,1.53-2.55c0.33-1.68,1.68-3.12-0.87-5.41c-1.14-1.01-1.99-2.43-1.2-2.94 c1.11-0.73,5.76-3.72,9.39-6.71c3.62-3,8.91-9,9.27-11.07c0.36-2.06-5.55-3.46-7.37-7c-1.83-3.54-3.07-7.38-3.07-7.38 s-6.56-11.93-5.28-12.15c1.06-0.18,4.28,0.47,5.67,1.21c2.53,1.37,21.16,13.37,21.16,13.37l18.04-6.4l9.86-0.16l9.5,4.21 l15.42,18.81l3.94,11.59l-0.73,12.18l-5.69,11.79c0,0-5.95,8.76-9.32,10.39c-3.38,1.63-6.6,2.66-9.83,3.4 c-3.21,0.74-10.73,5.09-12.4,10.11c-1.69,5.02-1.28,3.74-0.13,6.31c1.43,3.19,5.42,4.45,6.37,6.06c0.95,1.63,1.79,5.18,2.53,7.77 c0.72,2.57,2.84,5.61,7.94,11.42c5.12,5.84,17.24,24.85,17.91,30.62c0.65,5.74-1.87,24.55-2.96,26.99 c-1.09,2.44-1.4,7.98-1.21,14.05c0.21,5.9-1.64,31.54-5.03,34.41c-3.39,2.88-11.18,5.63-10.85,7.65 c0.33,1.98,20.38,48.67,20.38,48.67l10.19,39.72l5.04,23.5H662.56l-3-49.38l-10.23-46.02l-10.22,1.17l-3.23,16.82l-6.42,0.87 l-7.01,1.48l-6.73,0.87l-5.54,2.68l-6.14-3.55l-2.92-20.06l-12.55,0.28c0,0-3.44-2.42-3.23-3.91c0.23-1.48,0.52-2.72,2.42-4.35 c1.9-1.63,20.66-12.62,20.66-12.62s7.58-1.7,8.97-1.48c1.39,0.21,5.83,1.48,9.53,0.33c3.94-1.22,15.69-5.4,15.69-5.4l-5.98-36 l0.72-17.14c-0.38-3.01-2.42-8.7-4.59-15.54c-1.99-6.26-4.02-13.52-5.62-18.81c-3.29-10.77-6.88-18.88-9.47-25.93 c-1.59-4.32-4.29-6.93-7.34-11.18c-1.95-2.72-3.95-6.27-6.57-9.36l-1.9-7.67l-10.08-1.48l-6.43-14.31c0,0-39.21-49.74-41.69-53.87 c-2.49-4.14-5.86-9.52-8.13-10.6c-6.28-2.99-16.06-10.76-16.06-10.76l-19.14-0.89l-5.41,5.6c0,0,1.39,12.28-1.09,14.34 c-2.5,2.06-2.87,2.32-6.8,5.32c-4.22,3.22-26-0.48-28.49-1.51C456.05,79.62,450.84,73.7,450.84,73.7"></path> <path class="st1" d="M689.33,197.83c2.86,3.34,4.51,4.09,7.27,4.56c-2.3,3.99-9.39,20.34-11.79,28.9c0,0,1.75,0.38,2.4,0.18 c0,0,11.69-28.07,32.96-48.42l-1.39-1.5c-0.84-0.64-1.94,0.48-3.13,1.59c-5.98,4.55-12.25,13.11-15.64,15.72 c-3.41,2.6-6-5.4-6.73-6.79c-0.72-1.4-0.72-1.59-1.74-1.3c-1.66,0.56-12.7,4-17.41,6.22c1.02,1.39,5.44,0.84,7.56-0.36 C684.17,195.5,686.47,194.47,689.33,197.83"></path> <path class="st1" d="M646.14,218.37c4.33,2.7,29,10.59,29.93,10.7c1.02,0.09,1.66-1.69,1.66-1.69s-8.48-3.82-11.69-5.01 c-17.68-7.06-17.4-8.19-16.95-9.29c3.14-9.13,12.49-24.86,14.37-26.29c0.76,0.34,3.13,1.84,4.24,2.28c0-0.45-1.15-3.3-2.36-5.47 c-1.13-2.05-5.28-7.9-5.64-7.62c-0.92,1.68-5.21,8.78-4.68,8.87c0.56,0.09,2.55,0.34,2.55,0.34c-1.47,2.79-8.01,17.12-10.95,24.64 C643.65,217.34,644.94,217.63,646.14,218.37"></path> <path class="st1" d="M622.39,182.58c-2.58-3.81-3.95-4.47-3.86-3.62c0.09,0.84,2.49,8.09,5.06,15.34c2.57,7.25,8.92,28.17,9.29,27.8 c1.31-6.24,12.8-33.56,20.99-45.1c-1.12-1.48-2.86-0.55-6.81,3.18c-1.83-6.52-2.76-8.84-5.62-12.39c-0.72-1.02-6.16-6.31-8.75-8.82 c-2.36-2.31-3.49-1.86-2.48-0.56c1.11,1.49,4.33,9.49,4.87,12.74c0.56,3.24,1.57,20.07,0.74,24.91 C632.43,195.41,624.97,186.39,622.39,182.58"></path> <path class="st1" d="M581.71,132.1c0.74,0.61,2.33,3.1,2.08,3.47c-0.61,1.36-1.1,1.98,1.72,6.69c2.82,4.72,4.3,7.44,4.3,7.44 c0.35,0.74,2.94,1.11,4.89,1.36c1.98,0.23,4.79,0.88,4.79,0.88l11.67,15.12c-0.38-2.35,1.58-1.61-6.52-15.76l7.86-10.51 c1.6,4.58,10.31,31.48,11.3,34.45c0.49,1.49,2.2,1.73,1.46-2.23c-0.73-3.97-5.77-37.18-6.38-42.27c-0.61-5.08-2.32-7.93-2.32-7.93 c-3.82,9.42-9.72,15.6-16.71,23.3c-1.23,0.37-4.05-0.61-5.16-0.99c-1.1-0.38-7.23-10.4-8.08-11.64c-0.51-0.49,6.74-1.11,11.41-8.55 c4.67-7.44,3.94-11.67,4.18-14.51c-1.11,1.24-9.45,14.38-16.09,17.99c-0.86-0.39-16.07-16.37-22.09-24.55 c-6.01-8.19-15.59-21.21-19.52-27.41c-0.99-0.22-2.33-0.11-2.69-0.11C550.4,93.44,565.63,118.1,581.71,132.1"></path> <path class="st1" d="M752.07,243.54c1.54-5.29,7.4-20.54,1.7-32.66c-5.69-12.13-17.41-23.93-18.48-24.88 c-1.07-0.93-3.24,4.98-2.47,5.76c5.39,5.3,15.7,20.37,16.79,24.41c1.06,4.04-0.15,27.37-0.77,30.31 C748.84,247.42,750.54,248.82,752.07,243.54"></path> <path class="st1" d="M709.36,270.3c2.58,0.62,13.75,4.47,17.43,9.29c0.62,0.38,2.34-0.62,2.34-0.62s-1.12-8.79-1.22-10.04 c-0.13-1.23-13.76-3.48-17.06-4.83c-3.3-1.36,0-4.71-0.5-8.56c-0.48-3.84-1.21-8.3-1.96-11.17c-0.72-2.85,0-12.01,2.58-19.95 c2.57-7.93,9.57-23.54,14.25-29.37c0.24-0.75-0.5-1.37-0.99-0.88c-9.08,7.93-18.52,26.54-22.59,44.13 c-0.12,3.84,0.74,11.16,0.74,11.16s0.86,1.49,0.49,4.34c-0.37,2.85-1.71,12.53-1.96,13.27c-0.24,0.74-0.24,1.85-11.67,5.95 c-4.04,1.73-6.63,3.58-6.39,4.83c0.25,1.24,2.46,0.99,5.65,0.13c6.28-1.85,13.27-3.97,16.33,0c3.06,3.95,10.93,16.11,12.89,20.58 c0.38,0.12,0.98,0.36,0.98,0.36s1.1-3.83-2.09-12.14c-3.19-8.3-7.97-14.49-9.58-16.12C705.43,269.06,706.79,269.68,709.36,270.3"></path> <path class="st1" d="M641.99,294.28c8.67-3.22,31.68-10.95,32.16-11.37c0,0,0.91-1.6,1.61-2.51c0.68-0.9,1.48-1.61,1.08-1.52 c-10.05,1.43-27.18,7.05-32.17,9.57c0,0-3.27-15.18-4.07-22.32c-2.1-17.29,2.68-21.7,3.88-25.14c0.63-1.83,1.39-7.04,1.39-7.04 l-0.69,0.3c-6.28,2.7-7.47,2.01-8.57-0.3c-1.7,6.41-2.81,13.36-3.11,18.45c0.24,4.89,1.9,24.09,6,38.05l-0.51,0.22 c-4.57,1.5-12.95,5.42-12.95,5.42l0.21,0.9C628.75,296.89,638.01,295.59,641.99,294.28"></path> <path class="st1" d="M697.28,250.11l-0.56-4.68c0,0-5.48,2.27-7.18,2.12c-1.68-0.13-1.96-2.97-4.2-7.24 c-1.12-3.52-3.37-1.56-4.35,0.58c0,0,0.43,2.7,3.94,8.79C688.43,255.78,691.53,252.22,697.28,250.11"></path> <path class="st1" d="M676.91,245.86c-8.29-3.13-26.69-10.51-26.69-10.51l-0.13,0.28c-0.14,2.42-0.43,4.54-0.14,5.1 c0.27,1.01,17.98,7.68,29.07,7.82C679.58,248.25,679.62,246.86,676.91,245.86"></path> <path class="st1" d="M752.64,336.21c-8-17.02-15.6-35.74-15.6-35.74c1.97-0.85,7.87-2.84,10.26-6.1c5.04-5.97,3.36-30.65,2.66-41.42 c-1.86,0.37-2.55,2.49-2.55,2.49s-0.86,16.71-2.7,25.16c-3.43,13.38-3.67,12.51-14.74,17.71c-3.23,1.53-7.97,2.73-7.97,2.73 l-0.74,1.24c-0.61,1.49-1.22,2.12-6.74,4.22c-5.53,2.11-13.14,5.22-14.49,4.1c-5.78-3.61-13.73-21.08-13.73-21.08 s-1.85-0.74-3.07-0.87c0,0,3.07,11.27,6.28,19.33c-8.11-0.54-38.94,5.57-42.26,6.33c-3.3,0.74-7.91,3.34-13.15,0.46 c0,0-0.38,0-1.4,0.47c0,0,1.94,2.13,2.12,2.88c0.19,0.73,0.27,4.45,0.19,8.45c0.65,5.76-1.74,8-3.67,7.17 c-1.94-0.84-4.97-1.21-6.73,0.73c-1.67,2.05-4.69,0.28-6.26,0.46c-1.24,0.17-4.06,2.25-5.79,3.36c-1.75,1.1-6.17-0.74-6.35-1.95 c-0.19-1.21,0-7.25-0.09-8.74c-0.09-1.48-1.56-5.95-2.12-7.44c-0.37-1.01-1.36-3.07-1.98-4.31c-0.4-0.92-1.08-2.48-1.02-2.6 c0.04-0.17-8.27,4.1-10.48,3.65c-2.21-0.41-4.47-0.89-4.79-4.17c0.1-0.59,3.62-1.82,6.16-3.03c2.53-1.23,14.84-8.56,17.07-11.06 c1.46-1.16,4.49-0.95,4.49-0.95c2.68,0.1,4.54-2.08,4.54-2.08c-1.53-0.31-6.68-2.03-10.41,0.15c-3.48,1.93-10.53,7.02-13.48,8.78 c-2.94,1.76-7.05,3.39-7.57,3.61c-0.53,0.21-1.36,2.55-0.73,3.28c-0.32,1.33-1.21,2.54-1.06,3.79c0.14,1.07,0.91,3.13,2.7,4.84 c-13.94,6.17-23.6,19.4-23.6,34.73v6.7c0,1.2,0.99,2.21,2.19,2.21c0.51,0,0.99-0.2,1.36-0.5c0.44,0.39,1,0.76,1.63,1.13 c2.41,1.26,2.8,1.08,3.84,0.74c0.26-0.07,0.47-0.48,0.68-0.58v-0.52c0-2.13,3.63-1.65,3.63,0.33v56.41 c5.44,2.46,14.52,4.89,29.13,4.89c25.58,0,32.08-6.78,33.55-9.01c0.27-0.44,0.36-1.8,0.36-1.8v-3.8c-0.05,0.01-0.1,0.02-0.14,0.03 l-0.02,0.04c-0.85,1.07-1.79,2.04-2.82,2.89c-0.21,0.17-0.41,0.33-0.65,0.47c-0.03,0.02-0.04,0.03-0.07,0.06 c-0.14,0.11-0.27,0.23-0.41,0.33c-0.5,0.44-1.06,0.85-1.76,1.12h-0.03c-11.07,5.94-28.2,5.64-41.74,4.39c0,0-0.47-33.89-0.47-41.94 c0-2.06-1.45-8.46,3.89-7.71c10.32,1.04,21.75,0.27,30.3-1.92c0.88-1.75,1.66-3.53,2.36-5.39c-6.3,1.39-14,2.16-22.35,2.05 c-18.32-0.27-33.64-4.67-37.51-10.35c6.69,4.24,19.97,7.23,35.25,7.44c11.04,0.15,20.98-1.18,28.21-3.46 c0.14-0.07,0.3-0.1,0.47-0.14c2.48-0.81,4.62-1.73,6.35-2.76c0.34-0.05,0.65-0.1,0.94,0.08c0.32,0.34,0.56,0.78,0.69,1.29 c0.07,0.27,0.09,0.54,0.07,0.8c-0.04,0.18-0.08,0.34-0.15,0.49c-0.06,0.11-0.14,0.2-0.21,0.29c-1.23,0.76-2.71,1.45-4.4,2.12v0 c0,1.01-0.03,2.03-0.07,3.03c0.04,0.46,0.08,0.93,0.13,1.39c0.03-0.01,0.06-0.03,0.08-0.03c0,0-0.03,19.06-0.03,31.62 c0,3.62,0.07,6.61,0.11,9.06c1.35-0.04,2.66-0.07,3.99-0.07V364.5c1.36-0.75,2.35-1.54,2.92-2.37c0.34,0.2,0.73,0.33,1.15,0.33 c1.2,0,2.18-1,2.18-2.21v-5.46c0-8.21-2.78-15.81-7.49-22.04c-0.13,0.23-0.29,0.44-0.46,0.67c1.39-4.9,3.44-13.54,3.44-13.54 l2.29-0.18c2.49,7.24,7.74,25.38,10.65,41.84c2.7,15.61,0.62,29.84,4.04,51.16h7.13c-0.98-5.09-0.86-22.05-2.82-41.49 c-1.97-19.47-7.86-34.46-8.71-39.31c0.61-2.72,7.83-6.55,13.98-10.04c13.75-7.43,22.46-7.69,24.18-6.19 c4.67,3.71,5.03,3.47,5.65,3.32c7.61-0.73,15.96-5.69,20.37-7.55c4.42-1.85,6.37-5.32,7.12-6.07c0.73-0.73,4.62-1.8,4.62-1.8 c1.12,3.28,10.11,20.3,13.91,27.11c-3.64-1.15-13.34-5.54-21.48-15.46l-4.78,3.11c2.39,2.84,16.44,15.32,28.51,16.16 c1.96,5.06,3.92,11.16,5.83,17.81c-4.72,3.69-18.71,10.15-38.35,3.86c-1.15-0.37-2.4,0.28-2.78,1.45c-0.36,1.19,0.29,2.44,1.45,2.8 c6.21,1.98,12.06,2.8,17.4,2.8c10.27,0,18.56-3.01,23.54-6.35c5.06,18.7,9.54,40.28,12.14,55.82H773 C772.16,404.76,760.63,353.23,752.64,336.21 M641.94,352.3c-4.91-3.97-19.71-6.84-37.21-6.84c-16.62,0-30.8,2.6-36.38,6.26 c1.54-15.75,14.75-28.45,31.59-30.64l0.65,2.06c0.37,2.98,2.12,15.15,3.32,17.66c1.18,2.52,5.42,3.44,7.35,3.44 c1.93,0,4.51-4.01,4.51-4.01s2.02-0.46,3.4,0.38c3.22,1.3,4.88,1.67,6.72,0c2.5-1.85,4.25-2.14,6.35-1.12 c1.75,0.86,3.5-0.08,4.68-1.94C639.73,341.93,641.53,346.94,641.94,352.3"></path> <path class="st1" d="M687.87,386.29c0.64-5.21,0.98-8.7,0-10.06c-1.88-3.12-15.88-9.43-18.52-11.07c0.95,0.93,4.33,6.06,5.46,7.66 c1.23,1.8,7.03,8.26,7.65,9.35c0.62,1.08-0.9,8.08-1.07,8.79c-0.18,0.73,1.43,4.93,2.76,7.09c1.33,2.17,3.91,10.52,5.06,14.66h8.09 c0,0-3.46-10.07-5.41-15.54C689.92,391.68,687.25,391.49,687.87,386.29"></path> <path class="st1" d="M669.35,365.15c-0.12-0.1-0.2-0.16-0.24-0.15C669.17,365.05,669.26,365.1,669.35,365.15"></path> <path class="st1" d="M728.99,174.59c0-1.99-3.6-7.25-4.22-9.24c-0.43-0.84-1.16-0.17-1.74,0.3c-1.13,0.96-0.2,4.57,0.93,7.09 c1.27,2.87,2.42,5.79,2.53,5.83C727.51,177.55,728.99,176.59,728.99,174.59"></path> <path class="st1" d="M536.54,57.86c-2.82,0-7.48,1.36-14.23-1.87c-3.7-2.11-8.6-0.86-10.68-0.73c-2.08,0.11-8.22,1.86-11.05-1.11 c-1.48-1.75-1.48-3.1-1.48-3.1c-1.71-0.38-2.95-0.06-2.83-1.21c0.11-0.84-0.17-4.09,0.11-4.36c0.27-0.28,7.36-9.3,9.02-10.89 c1.65-1.57,7.09-2.6,14.17-3.43c3.41-0.47,8.01-1.39,8.47-1.49c0.46-0.09-11.26,8.42-11.26,8.42c-3.25,0.19-5.1,0.37-6.33,0.75 c-1.21,0.38-1.96,1.54-3.55,3.53c-1.6,1.99-4.67,6.51-5.35,6.88c0,0-0.13,0.88,0.56,0.8c0.66-0.05,3.5-0.8,4.79-1.11 c1.95-0.76,8.03-4.22,9.57-5.03c1.53-0.8,5.83-1.85,9.07-2.12l0.74-0.11l9.5-7.62c0,0,7.97,9.85,10.75,15.99 c1.84,4.06,4.41,5.82,7.44,8.7c3.04,2.89,23.94,23.34,28.27,27.8c4.32,4.47,17.21,14.61,17.67,14.78c0.27-0.09,1.58-2.13,1.58-2.13 c-19.24-22.67-43.37-42.38-47.7-46.3c-1.66-1.39-3.03-4.92-3.86-6.6c-0.83-1.68-7.83-13.2-9.67-15.62 c2.67-2.04,10.35-5.47,6.73-10.22c-3.41-4.47-7.82,0.56-12.07,3.82l-2.11,1.48c-7.45-1.01-21.36,1.02-26.51,2.7 c-2.69,0.92-3.68,3.34-5.44,5.77c0,0-5.71,8.54-6.08,9.19c-0.36,0.65-2.11,2.41-1.19,7.44c0.28,1.84,0.64,2.52-0.18,3.52 c-0.56,0.67-0.8,1.73-2.77,1.04c-1.01-0.39-1.19-0.19-3.78-1.31c-1.93-0.93-5.71-0.37-10.4,4l-2.77,2.89 c0.84,0.91,13.99,12.55,13.99,12.55s3.32,2.87,4.43,3.89c1.29,0.93,5.24-4.26,6.72-6.03c1.46-1.77,2.84-1.86,0.82-7.62 c-0.24-0.55-0.58-1.5,0.1-2.05c1.48-1.2,1.92-1.4,3.4-2.69c-0.26,1.57-0.37,3.54-0.55,4.36c-0.19,0.83,1.84,5.77,7.28,1.86 c1.65-1.2,3.02-2.32,3.3-2.68c0.55,2.22,0.27,5.19,1.57,5.47c1.29,0.27,3.96,0.47,5.99-5.02c0.29-1.08,0.79,0.28,1.78,2.52 c0.99,2.22,2.34,4.2,7.61,4.2c2.7,0.13,8.59,0.74,9.08,0.87c0.61,0-3.81-3.35-5.05-4.47c-1.21-1.11-1.33-3.45-1.33-3.45 c5.15-1.61,8.47-4.34,8.47-4.34C542.3,57.6,539.36,57.86,536.54,57.86"></path> <path class="st1" d="M736.25,261.87c-1.61-3.71-2.15-4.45-2.64-4.51c-0.5-0.09-3.87,0.04-6.39,0.23c-2.53,0.19-5.32,1.37-5,1.99 c-0.14,0.28,0.05,0.94,1.21,1.05c3.64,0.54,9.72,3.52,11.22,4.45C736.12,266,737.84,265.58,736.25,261.87"></path> <path class="st1" d="M622.61,121.95c3.77,3.17,12.85,11.86,15.27,16.21c1.72,2.3,4.14,2.68,7.43,2.68c0.31,0.09,1.8,0.17,1.8,0.17 s3.29,5.68,4.7,7.82c0.62,0.88,1.88,0.94,3.29,0.8c1.4-0.16,7.19,2.51,12.29,6.63c0.46,0.09,2.89-2.22,3.13-2.44 c-3.05-5.37-6.89-6.89-12.12-8.77c-1.5-0.33-2.83-0.24-6.5-6.74c-1.48-2.69-1.33-2.21-1.33-2.21c-3.99-0.48-7.05-0.22-7.6-0.4 c-1.1,0-6.03-6.96-10.43-11.16c-4.37-4.17-9.46-8.84-11.34-9.86C620.72,115.45,618.86,118.79,622.61,121.95"></path> <path class="st1" d="M616.84,113.36c0.21,0.26,0.58,0.71,0.84,0.46c0.79-2.66,0.83-3.8,0.74-4.2c-0.09-0.43-4.34-5.92-6.7-7.86 c-0.46-0.53-1.85-1.37-2.1-1.37c-1.7,2.54-3.18,4.32-3.65,4.79c0.04,0.76,0.04,1.21,0.13,1.42 C610.27,107.03,613,109.32,616.84,113.36"></path> <path class="st1" d="M572.08,370.97c-0.56-0.36-1.22-0.7-1.85-0.98c-0.08-0.02-0.17-0.05-0.26-0.07v44.41c0,0,0.17,1.78,0.58,2.18 c0.53,0.54,1.48,1.36,2.96,2.28v-47.54C573.02,371.33,572.48,371.23,572.08,370.97"></path> <path class="st1" d="M477.65,69.1c-5.56,4.06-12.78,7.44-18.32,8.54c-0.12,0.04-0.25,0.05-0.37,0.05c-0.87,0-1.63-0.6-1.8-1.49 c-0.2-1.01,0.45-1.99,1.45-2.19c4.86-0.99,11.15-3.91,16.21-7.45c-1.73-1.57-3.07-2.78-3.32-3.06c-5.92,3.55-16.59,8.65-24.7,8.26 c-2.7-0.49-1.35,3.34,1.96,4.47c1.47,0.49,3.57,2.97,5.65,4.46c2.1,1.49,5.65,4.84,9.7,3.84c1.85,1.49,5.65,6.32,13.75,2.71 c7.89-3.48,12.06-7.29,12.06-7.29c-1.11-1.04-4.42-3.91-4.42-3.91S481.41,72.46,477.65,69.1"></path> <path class="st1" d="M673.44,118.91c0.07,0.04,0.16,0.07,0.25,0.1c0.5-0.16,0.98-0.28,1.49-0.41c0.91-0.46,2.46-0.68,2.88-1.07 c2.21,0.34,4.7,0.55,6.02-1.44v-0.02c0.06-1.17-0.31-1.29-1.08-1.07c-0.69,0.8-2.02,1.59-3.53-0.1c-0.49-0.7-0.96-1.24-1.56-1.67 c-1.05-0.38-1.94-0.78-3.18-1.18c-0.33-0.12-0.61-0.3-0.86-0.51c-1.03-0.65-1.95-1.42-2.84-2.21c-0.93,0.21-0.89,1.16-0.55,2.2 c0.11,0.22,0.23,0.43,0.33,0.63c0.03,0.03,0.03,0.06,0.04,0.07c0.35,0.5,0.73,0.98,1.05,1.5c0.47,0.43,0.95,0.87,1.38,1.33 c0.31,0.22,0.11,1.39-0.3,2.48c0,0.09,0,0.17,0,0.27c0,0.1-0.01,0.18-0.04,0.25C673.01,118.4,673.17,118.72,673.44,118.91"></path> <path class="st1" d="M697,108.01c0,0,0.03-1.67,0.06-1.95c0.23-0.16,1.33,0.26,1.55,2.87c0,0,0.61,0.34,1.32,0.72 c0.07-0.03,0.13-0.04,0.2-0.07c0.13-0.14,0.25-0.27,0.41-0.39c0-0.02,0.01-0.02,0.01-0.02c0.09-0.24,0.15-0.49,0.23-0.72 c-0.15-0.96-0.37-2.21-0.87-3.56c-1.38-3.56-6.1-4.08-6.32-4.99c-0.28,0.49-0.45,0.87,0.23,1.82c0.66,0.95,0.97,1.17,0.83,1.42 c-0.66,0.68-1.02,1.56-1.3,1.91c-0.06,0.1-0.12,0.14-0.18,0.18c0.02,0.16,0.02,0.29,0.06,0.43c0.08,0.18,0.2,0.36,0.35,0.51 c0.22,0.2,0.45,0.42,0.66,0.65C695.29,107.21,696.33,107.6,697,108.01"></path> <path class="st1" d="M679.06,66.68c3.44,2.17,19.76,14.87,21.38,15.59c31.3-15.81,36.14-2.01,44.82,6.95 c12.99,13.43,12.05,37.11-3.51,47.22c-0.22,0.15-0.74,0.19-0.74,0.19l0.74,5.38c20.32-8.99,22.48-34.13,11.67-51.16 c0.48-0.84,0.28-2.17-0.58-3.24c-0.78-0.97-1.88-1.43-2.76-1.3c-0.42-0.47-0.84-0.95-1.28-1.41c-6.98-7.34-17.55-24.66-48.37-6.44 c-2.49-1.29-18.67-11.27-20.85-12.2C678.84,65.93,677.97,65.75,679.06,66.68"></path> <path class="st1" d="M702.48,87.5c3.32,3.77,10.32,9.6,11.56,11.91c0.37-0.23-0.46-4.24-5.12-9.39c-2.53-3.05-3.96-4.98-3.96-4.98 C702.8,85.78,701.7,86.35,702.48,87.5"></path> <path class="st1" d="M702.52,109.17c-0.79-0.11-0.94,1.27,0.17,1.87c1.13,0.6,2.11,1.74,2.45,1.67c0.36-0.05,1.64-0.55,1.11-1.41 C705.71,110.42,703.87,109.42,702.52,109.17"></path> <path class="st1" d="M676.38,155.91c-0.42,0.06-2.31-0.06-3.2-0.41c-1.78-0.84-2.3-0.42-2.79,0.06c-0.61,0.95-4.49,5.7-6.54,7.42 c-1.69,1.37-2.36,4.27-2.03,4.04c0.33-0.06,2.71-2.04,4.35-2.87c1.64-0.83,4.82-1.31,5.17,2.2c0.33,3.5-0.14,16.49-0.2,19.17 c-0.07,2.68,0.48,3.21,2.1,2.53c1.72-0.83,8.03-4.67,9.66-5.42c1.64-0.75,2.11-1.02,1.91-1.43c-0.21-0.42-0.82-0.42-1.91-0.32 c-1.69,0-2.11-2.22-2.59-6.2c-0.07-2.75-1.36-7.49,2.26-11.81c4.21-5.07,22.1-13.39,23.86-14.36c1.77-0.97,1.77-0.97,1.3-2.12 c-0.34-0.75-2.45,0.13-6.19,0.4c-7.88,0.97-25.58-0.27-30.74-5.22c-3.33-3.77-0.6-6.85,3.07-7.26c4.1-0.48,4.48,0.47,6.52-0.63 c2.5-1.35,0.2-2.95-1.76-3.43c-1.98-0.49-4.76-1.38-7.14-3.3c-0.42-0.48-0.96-0.55-1.37-0.07c-1.43,1.99-0.18,3.16,0.87,4.27 c0.15,0.53-1,1.02-2.09,2.05c-3.94,3.7-2.25,7,1.09,10.79C673.32,147.74,677.12,152.82,676.38,155.91"></path> <path class="st1" d="M680.9,127.34c3.23,0.46,7.46,0.92,7.92,0.92c0.47,0,0.92,0.18,1.29,0.74c0.37,0.56,3.03,4.65,3.6,4.56 c0.54-0.1,0.74-3.83-1.46-7.17c-2.22-3.36-3.42-2.79-4.25-2.43c-0.83,0.38,0.08,1.49,0.74,2.52l0.64,1.05 c0.07,0.25-2.64-0.18-4.73-1c-2.74-0.99-7-2.24-9.15-3.13l-0.03,0.01c-0.03-0.01-0.07-0.06-0.09-0.06 c-0.35-0.14-0.67-0.28-0.86-0.41c-0.46-0.27-2.73-2.1-2.98-2.7c-0.29,0.53-0.58,1.04-0.78,1.21c0.75,1.58,1.48,2.89,1.67,3.37 C672.6,125.27,677.66,126.88,680.9,127.34"></path> <path class="st1" d="M673.77,77.06c2.31,1.29,5.55,3.16,5.57,3.16c0.12,0.59,0.26,1.16,0.47,1.74c1.38,3.91,4.66,7.44,6.89,8.82 c0.31,0.41,1.22-0.02,0.67,1.4c-0.5,1.3-2.75,6.31-7.27,8.59c-0.45,0.79-0.64,1.58-0.33,2.41c0.05,0.06,0.11,0.09,0.16,0.12 c0.25,0.03,0.53,0.06,0.8,0.06c1.15-0.56,2.28-1.13,3.37-1.79c0.08-0.06,0.17-0.08,0.25-0.09c0.53-0.5,1.07-0.97,1.63-1.45 c1.96-2.4,4.41-5.71,5.22-6.9c0.84-1.23,2.83,0.57,2.83,0.57s-1.66,1.94-1.42,2.76c0.24,0.85,1.78,1.32,2.78,1.67 c5.77,2.06,10.32,4.17,10.57,8.2c0.45,1.34,1.29,1.53,1.19,0.52c-0.11-1.23,0.54-4.09-1.2-6.49c4.61,3.23,11.19,9.25,10.68,11.89 c-1.77,7-5.83,9.79-8.76,12.39c-0.51,0.77,2.96,5.61,4.32,6.81c1.38-0.78,5.56-3.54,8.41-4.94c2.86-1.43,6.72,3.32,6.07,8.81 c-0.53,4.52-5.4,6.82-8.59,7.86c-3.4,2.55-2.31,6.98-2.01,11.68c0.21,1.18,0.56,3.01,0.85,4.63c1.79,6.25-3.19,8.68-16.32,16.62 c-2.4,1.45-3.14,3.46-2.21,3.09c6.08-3.71,17.48-7.41,20.37-11.77c1.36-2.06,0.99-4.49,0.69-6.61c0.24-1.19-0.01-2.52,3-4.34 c4.16-2.54,12.87-5.49,15.3-12.11c1.74-4.77-6.56-24.12-19.01-36.8c-4.81-5.36-11.83-9.99-18.93-13.54 c-3.99-1.99-8.76-4.33-12.65-6.54c-1.49-0.87-3.67-2.71-4.58-4.24c-1.44-2.4-2.08-4.18-2.31-8.52c-0.1-1.93-0.45-4.51-1.21-6.31 c-0.36-0.88-0.9-1.78-1.66-2.4c-0.33-0.26-0.6-0.48-1-0.62c-0.73-0.27-1.06-0.26-1.24-0.27c1.49,1.73,2.25,3.54,2.79,5.78 c0.3,1.25,0.46,2.54,0.6,3.83c-0.03,0.07-0.07,0.06-0.09-0.08c-0.2-1.27-0.42-2.47-0.76-3.65c-1.05-3.51-3.2-5.93-3.7-6 c-0.07-0.01-0.2,0.03-0.37,0.06C667.53,66.53,668.54,74.13,673.77,77.06"></path> <path class="st0" d="M152.05,159.94c-28.99,0-60.93,19.39-60.93,39.72c0,10.96,6.59,14.8,18.57,14.8 c-0.47-0.87-2.42-3.69-2.42-10.38c0-23.2,16.83-37.13,44.95-37.13c15.29,0,21.54,9.48,21.54,20.77c0,16.36-12.84,36.37-30.39,37.6 l12.34-51.03l-25.69,3.05l-23.18,95.34h24.99l10.15-41.75h0.89c31.24,0,50.18-21.51,50.18-40.9 C193.04,174.28,180.54,159.94,152.05,159.94"></path> <path class="st4" d="M204.66,195.49c5.19,2.02,12.49-0.7,16.36-6.19c3.87-5.5,2.81-11.64-2.37-13.65 c-5.17-2.02-12.46,0.86-16.33,6.36C198.47,187.51,199.5,193.46,204.66,195.49"></path> <path class="st0" d="M502.3,200.16c-18.03,0-37.76,24.2-37.76,47.8c0,0.47,0.02,0.94,0.03,1.42c-6.16,6.29-12.58,10.8-22.27,10.8 c-6.9,0-10.37-2.26-10.37-11.84c0-15.6,9.34-41.32,18.42-41.32c2.73,0,4.01,2.24,4.01,5.76c0,2.4-0.57,5.2-1.71,8.3 c1.71,1.13,3.45,1.7,5.03,1.7c4.18,0,7.62-3.37,7.62-10.27c0-6.47-3.17-12.95-15.96-12.95c-29.04,0-38.58,33.39-38.68,49.81 c-2.28,5.29-5.73,8.99-10.4,8.99c-4.03,0-5.92-1.27-5.92-5.19c0-1.28,0.23-2.73,0.59-4.52c0.38-1.8,10.36-47.79,10.36-47.79h-20.73 c0,0-8.21,38.04-9.77,45.13c-1.55,7.1-5.9,12.38-11.5,12.38c-3.17,0-4.3-2.53-4.3-5.77c0-1.27,0.11-2.41,0.42-3.94 c0.32-1.53,10.37-47.79,10.37-47.79h-20.73c0,0-9.01,41.39-9.78,45.13c-2.14,7.03-7.95,12.38-13.58,12.38c-4,0-5.89-1.27-5.89-5.19 c0-1.28,0.2-2.7,0.58-4.52c0.39-1.82,9.2-42.19,9.2-42.19h8.63l1.15-5.61h-8.63l4.89-22.22l-21.28,2.81l-4.32,19.42h-4.74 l-1.14,5.61h4.73c0,0-7.94,36.35-8.61,39.52c-3.19,7.33-6.39,12.38-12.72,12.38c-4.32,0-5.75-2.38-5.75-5.89 c0-7.87,6.9-24.91,6.9-36.31c0-11.24-6.76-15.86-15.98-15.86c-4.45,0-10.77,1.11-16.81,7.87l1.58-7.31h-20.71l-9.78,45.13h-0.01 c-2.13,7.03-7.94,12.38-13.56,12.38c-4.02,0-5.89-1.27-5.89-5.19c0-1.28,0.26-2.94,0.58-4.52c0.33-1.59,1.33-6.14,1.33-6.14 l9.03-41.65h-20.72l-7.15,32.92c0,0-1.89,8.72-2.64,12.21c-0.79,3.6-1.14,6.21-1.14,9.14c0,11.8,6.75,16.88,15.39,16.88 c5.38,0,13.88-1.49,21.32-10.05l-1.99,9.19h20.69c0,0,8.48-39.23,9.8-45.14c1.31-5.9,6.04-12.94,11.21-12.94 c3.45,0,5.16,2.53,5.16,7.18c0,8.98-6.45,26.3-6.45,35.87c0,8.01,4.44,15.89,16.96,15.89c5.8,0,13.59-1.72,20.53-12.67 c1.43,8.81,7.52,12.67,15.04,12.67c6.02,0,15.91-1.87,23.88-13.37c1.23,9.29,7.43,13.37,15.14,13.37c6.06,0,14.08-1.84,21.29-13.38 c0.86,8.72,6.04,13.38,14.23,13.38c6.04,0,15.19-1.87,22.81-13.43c2.83,9.43,10.62,13.43,21.25,13.43 c14.18,0,24.57-7.22,32.34-16.21c0.68,2.73,1.79,5.41,3.54,7.91c3.98,5.69,11.06,8.36,17.71,8.36c7.52,0,16.32-3.64,23.55-11.43 c8.87-9.58,12.63-23.49,12.63-35.68C522.86,207.67,512.67,200.16,502.3,200.16 M488.82,257.99c-3.6,0-8.33-2.99-8.33-12.13 c0-7.03,2.51-15.32,5.89-21.44c5.51-9.95,11.91-11.47,14.49-11.47c5.09,0,8.42,4.28,8.42,13.35 C509.31,238.95,499.33,257.99,488.82,257.99"></path> </svg> 