<svg id="Capa_1" data-name="Capa 1" xmlns="http://www.w3.org/2000/svg" width="139.99566" height="39.77792" viewBox="0 0 139.99566 39.77792">
  <g>
    <g id="Capa_2" data-name="Capa 2">
      <g id="Capa_1-2" data-name="Capa 1-2">
        <g>
          <path d="M25.5638,33.42958a13.76153,13.76153,0,0,1-11.25064-5.83883A13.76541,13.76541,0,0,1,23.56134,6.046a13.7635,13.7635,0,0,1,15.7676,13.61842A19.66447,19.66447,0,1,0,19.66447,39.32891,19.66445,19.66445,0,0,0,39.32894,19.66444,13.76514,13.76514,0,0,1,25.5638,33.42958Z" style="fill: #ff1801"/>
          <path d="M25.5638,5.89933a13.86854,13.86854,0,0,0-2.00246.14669,13.76483,13.76483,0,0,1,0,27.23687A13.765,13.765,0,1,0,25.5638,5.89933Z" style="fill: #ffb900"/>
          <path d="M23.56134,6.046a13.75744,13.75744,0,0,0-9.24818,5.69213,8.849,8.849,0,1,1,0,15.8526,13.75751,13.75751,0,0,0,9.24818,5.69213,13.76483,13.76483,0,0,0,0-27.23686Z" style="fill: #ffe500"/>
        </g>
      </g>
    </g>
    <path d="M70.79278,28.87173l-.00391-.00391a3.11763,3.11763,0,0,1-3.40875-2.79638l-.00262-.02832c3.3764-.20587,9.02966-1.20441,9.02966-6.205,0-3.61731-2.41278-5.3736-6.03015-5.3736-5.88642,0-8.85871,4.8219-8.85871,9.82239,0,5.63,3.07715,8.45471,8.4469,8.45471a13.29784,13.29784,0,0,0,6.61689-1.52691l-1.51532-3.79224A8.02317,8.02317,0,0,1,70.79278,28.87173Zm-.72485-10.366-.00177-.00024h.0039l-.00213.00024a1.28906,1.28906,0,0,1,1.34655,1.41406c0,1.69019-2.44793,2.54877-4.309,2.65369C67.21032,20.19668,68.34405,18.50717,70.06793,18.5057Zm.00213-.00024-.00213.00024-.00177-.00024Zm20.69269-2.8877-.0155,4.94617c-.34577-.9209-5.4552-2.96069-5.4552,1.55023V32.23574H79.53778V14.59194h4.6936l-.01563,2.444.01172-.03106C86.46154,13.16214,90.145,14.80184,90.76275,15.61776Zm10.14893-1.3399v.004l-.004-.00013Zm0,.004v.027a25.79971,25.79971,0,0,0-7.67762,1.30933V39.77792h5.7854v-7.4834a7.03248,7.03248,0,0,0,2.54523.47022c4.756,0,7.716-3.11231,7.716-9.24738C109.2807,17.38375,106.45794,14.28347,100.91168,14.28189Zm-.268,14.17773-.004-.00391a2.20486,2.20486,0,0,1-1.61627-.45068V18.81985a5.0239,5.0239,0,0,1,1.37927-.20593c2.755,0,3.097,2.89471,3.097,5.18323C103.49969,25.96524,102.94769,28.45962,100.64367,28.45962Zm39.352,2.712a8.99484,8.99484,0,0,1-5.3,1.60461c-5.346,0-5.653-3.0423-5.653-6.341V9.68124h5.77v16.315c0,1.55408.377,2.2768,1.48,2.2768a5.52266,5.52266,0,0,0,2.009-.48951c.004-.0039.12-.05828.12-.05828Zm-19.225-2.28534-.008-.00391a3.11336,3.11336,0,0,1-3.40851-2.78717l-.00354-.03747c3.377-.20594,9.03-1.20453,9.03-6.205,0-3.61743-2.413-5.3736-6.03-5.3736-5.886,0-8.855,4.8219-8.855,9.82239,0,5.63,3.062,8.45471,8.443,8.45471a13.33717,13.33717,0,0,0,6.621-1.527s-1.325-2.8985-1.682-3.68335A7.91919,7.91919,0,0,1,120.77069,28.88632Zm-.73505-10.36627a1.28666,1.28666,0,0,1,1.345,1.4143c0,1.69007-2.448,2.54877-4.309,2.65369C117.17669,20.21011,118.31066,18.52005,120.03564,18.52005ZM60.99011,14.56521l-2.59162,4.515.00391.00384H55.54266v6.96271c0,1.90771.88983,2.37793,2.06714,2.37793a5.76639,5.76639,0,0,0,1.12671-.136l1.51928,3.32977a7.62656,7.62656,0,0,1-4.43719,1.15778c-5.8631,0-6.1001-3.41528-6.1001-6.86157V9.68124h5.82025v4.884Z" style="fill: #ff1801"/>
  </g>
</svg>
